<?xml version="1.0" encoding="utf-8"?>
<?xml-stylesheet type="text/xsl" href="rss1.xsl"?>
<rss version="2.0" xmlns:atom="http://www.w3.org/2005/Atom" xmlns:content="http://purl.org/rss/1.0/modules/content/" xmlns:dc="http://purl.org/dc/elements/1.1/" xmlns:media="http://search.yahoo.com/mrss/">
<channel>
 <title>Getty</title>
 <link>http://www.gettyimg.com/</link>
 <atom:link href="http://www.gettyimg.com/" rel="self" type="application/rss+xml" />

 
                <item>
                <title><![CDATA[【SD Live Performances】SDTV - VH1 Divas Live (1999) 480p DVDRemux MPEG AC-3.2.0 &amp; 5.1]]></title>
                <link><![CDATA[https://sharemania.us/threads/vh1-divas-live-1999-480p-dvdremux-mpeg-ac-3-2-0-5-1.234165/]]></link>
                <description><![CDATA[<article>
<blockquote class="messageText SelectQuoteContainer ugc baseHtml">
<div style="text-align: center"><img src="https://i.imgur.com/9qb9ly1.jpg" class="bbCodeImage LbImage" alt="[​IMG]" data-url="https://i.imgur.com/9qb9ly1.jpg" style=""><br>
<div class="ToggleTriggerAnchor bbCodeSpoilerContainer">
<button type="button" class="button bbCodeSpoilerButton ToggleTrigger Tooltip JsOnly" data-target="> .SpoilerTarget"><span>Spoiler: <span class="SpoilerTitle">MediaInfo</span></span></button>
<div class="SpoilerTarget bbCodeSpoilerText">General<br>
Unique ID : 152325116187884683617821663180020899995 (0x7298C010B3B1907D31D63C9AE30DE09B)<br>
Complete name : C:\VH1 Divas Live (1999) 480p DVDRemux MPEG AC-3.2.0_5.1.mkv<br>
Format : Matroska<br>
Format version : Version 2<br>
File size : 3.67 GiB<br>
Duration : 1 h 13 min<br>
Overall bit rate mode : Variable<br>
Overall bit rate : 7 198 kb/s<br>
Encoded date : UTC 2023-05-27 22:00:02<br>
Writing application : MakeMKV v1.17.3 win(x64-release)<br>
Writing library : libmakemkv v1.17.3 (1.3.10/1.5.2) win(x64-release)<br>
<br>
Video<br>
ID : 1<br>
ID in the original source medi : 224 (0xE0)<br>
Format : MPEG Video<br>
Format version : Version 2<br>
Format profile : Main@Main<br>
Format settings : BVOP<br>
Format settings, BVOP : Yes<br>
Format settings, Matrix : Default<br>
Format settings, GOP : Variable<br>
Format settings, picture struc : Frame<br>
Codec ID : V_MPEG2<br>
Codec ID/Info : MPEG 1 or 2 Video<br>
Duration : 1 h 13 min<br>
Bit rate mode : Variable<br>
Bit rate : 6 517 kb/s<br>
Maximum bit rate : 8 500 kb/s<br>
Width : 720 pixels<br>
Height : 480 pixels<br>
Display aspect ratio : 4:3<br>
Frame rate mode : Constant<br>
Frame rate : 29.970 (30000/1001) FPS<br>
Standard : NTSC<br>
Color space : YUV<br>
Chroma subsampling : 4:2:0<br>
Bit depth : 8 bits<br>
Scan type : Interlaced<br>
Scan order : Top Field First<br>
Compression mode : Lossy<br>
Bits/(Pixel*Frame) : 0.629<br>
Time code of first frame : 00:59:57:21<br>
Time code source : Group of pictures header<br>
GOP, Open/Closed : Open<br>
Stream size : 3.33 GiB (91%)<br>
Language : English<br>
Default : No<br>
Forced : No<br>
Color primaries : BT.601 NTSC<br>
Transfer characteristics : BT.601<br>
Matrix coefficients : BT.601<br>
Original source medium : DVD-Video<br>
<br>
Audio #1<br>
ID : 2<br>
ID in the original source medi : 189 (0xBD)128 (0x80)<br>
Format : AC-3<br>
Format/Info : Audio Coding 3<br>
Commercial name : Dolby Digital<br>
Codec ID : A_AC3<br>
Duration : 1 h 13 min<br>
Bit rate mode : Constant<br>
Bit rate : 224 kb/s<br>
Channel(s) : 2 channels<br>
Channel layout : L R<br>
Sampling rate : 48.0 kHz<br>
Frame rate : 31.250 FPS (1536 SPF)<br>
Compression mode : Lossy<br>
Stream size : 117 MiB (3%)<br>
Title : Stereo<br>
Language : English<br>
Service kind : Complete Main<br>
Default : Yes<br>
Forced : No<br>
Original source medium : DVD-Video<br>
<br>
Audio #2<br>
ID : 3<br>
ID in the original source medi : 189 (0xBD)129 (0x81)<br>
Format : AC-3<br>
Format/Info : Audio Coding 3<br>
Commercial name : Dolby Digital<br>
Codec ID : A_AC3<br>
Duration : 1 h 13 min<br>
Bit rate mode : Constant<br>
Bit rate : 448 kb/s<br>
Channel(s) : 6 channels<br>
Channel layout : L R C LFE Ls Rs<br>
Sampling rate : 48.0 kHz<br>
Frame rate : 31.250 FPS (1536 SPF)<br>
Compression mode : Lossy<br>
Stream size : 234 MiB (6%)<br>
Title : Surround 5.1<br>
Language : English<br>
Service kind : Complete Main<br>
Default : No<br>
Forced : No<br>
Original source medium : DVD-Video<br>
<br>
Text<br>
ID : 4<br>
ID in the original source medi : 189 (0xBD)32 (0x20)<br>
Format : VobSub<br>
Codec ID : S_VOBSUB<br>
Codec ID/Info : Picture based subtitle format used on DVDs<br>
Duration : 1 h 6 min<br>
Bit rate : 2 958 b/s<br>
Count of elements : 441<br>
Stream size : 1.41 MiB (0%)<br>
Language : English<br>
Default : Yes<br>
Forced : No<br>
Original source medium : DVD-Video<br>
<br>
Menu<br>
00:00:00.000 : pt:Chapter 1<br>
00:01:04.197 : pt:Chapter 2<br>
00:09:00.907 : pt:Chapter 3<br>
00:12:45.598 : pt:Chapter 4<br>
00:22:08.193 : pt:Chapter 5<br>
00:25:35.100 : pt:Chapter 6<br>
00:31:27.318 : pt:Chapter 7<br>
00:36:18.809 : pt:Chapter 8<br>
00:41:04.662 : pt:Chapter 9<br>
00:45:26.223 : pt:Chapter 10<br>
00:51:21.912 : pt:Chapter 11<br>
00:56:17.741 : pt:Chapter 12<br>
01:04:17.920 : pt:Chapter 13<br>
01:09:28.931 : pt:Chapter 14</div>
</div><img src="https://media.fstatic.com/EMizieCoxvu9CVup9jp1nEw4Qfs=/322x478/smart/filters:format(webp)/media/movies/covers/2013/08/vh1-divas-live-1999_tNone.jpg" class="bbCodeImage LbImage" alt="[​IMG]" data-url="https://media.fstatic.com/EMizieCoxvu9CVup9jp1nEw4Qfs=/322x478/smart/filters:format(webp)/media/movies/covers/2013/08/vh1-divas-live-1999_tNone.jpg" style=""><br>
<i>SETLIST</i><br>
<br>
Tina Turner – "The Best"<br>
Tina Turner and Elton John – "The Bitch Is Back"<br>
Tina Turner, Elton John, and Cher – "Proud Mary"<br>
Cher – "If I Could Turn Back Time"<br>
LeAnn Rimes – "How Do I Live"<br>
Elton John – "I'm Still Standing"<br>
Brandy – "Have You Ever?"/"Almost Doesn't Count"<br>
Brandy and Faith Hill – "(Everything I Do) I Do It for You"<br>
Faith Hill – "This Kiss"<br>
Whitney Houston and Mary J. Blige – "Ain't No Way"<br>
Whitney Houston – "I Will Always Love You"<br>
Whitney Houston and Chaka Khan – "I'm Every Woman"<br>
Whitney Houston, Chaka Khan, Faith Hill, Brandy, Mary J. Blige, and LeAnn Rimes – "I'm Every Woman (reprise)"<br>
<div class="bbCodeBlock bbCodeVfcHH HiddenContent">
<div class="attribution type">Hidden Content:</div>
<blockquote>You must reply before you can see the hidden data contained here.</blockquote>
</div></div>
<div class="messageTextEndMarker">&nbsp;</div>
</blockquote>
</article>]]></description>
                <author><![CDATA[Yennefer]]></author>
                </item>

                
                <item>
                <title><![CDATA[【HD Live Performances】HDTV - VH1 Divas Celebrates Soul (2011) 1080i HDTV DD5.1 MPEG2-TrollHD]]></title>
                <link><![CDATA[https://sharemania.us/threads/vh1-divas-celebrates-soul-2011-1080i-hdtv-dd5-1-mpeg2-trollhd.234170/]]></link>
                <description><![CDATA[<article>
<blockquote class="messageText SelectQuoteContainer ugc baseHtml">
<div style="text-align: center"><img src="https://i.imgur.com/pZEHmTp.jpg" class="bbCodeImage LbImage" alt="[​IMG]" data-url="https://i.imgur.com/pZEHmTp.jpg" style=""><br>
<div class="ToggleTriggerAnchor bbCodeSpoilerContainer">
<button type="button" class="button bbCodeSpoilerButton ToggleTrigger Tooltip JsOnly" data-target="> .SpoilerTarget"><span>Spoiler: <span class="SpoilerTitle">MediaInfo</span></span></button>
<div class="SpoilerTarget bbCodeSpoilerText">General<br>
ID : 1 (0x1)<br>
Complete name : C:\VH1 Divas Celebrates Soul (2011) 1080i HDTV DD5.1 MPEG2-TrollHD.ts<br>
Format : MPEG-TS<br>
File size : 9.49 GiB<br>
Duration : 1 h 22 min<br>
Overall bit rate mode : Variable<br>
Overall bit rate : 16.5 Mb/s<br>
Law rating : TV-PG (L)<br>
<br>
Video<br>
ID : 521 (0x209)<br>
Menu ID : 1 (0x1)<br>
Format : MPEG Video<br>
Format version : Version 2<br>
Format profile : Main@High<br>
Format settings : CustomMatrix / BVOP<br>
Format settings, BVOP : Yes<br>
Format settings, Matrix : Custom<br>
Format settings, GOP : M=3, N=15<br>
Format settings, picture struc : Frame<br>
Codec ID : 2<br>
Duration : 1 h 22 min<br>
Bit rate mode : Variable<br>
Bit rate : 15.3 Mb/s<br>
Maximum bit rate : 18.0 Mb/s<br>
Width : 1 920 pixels<br>
Height : 1 080 pixels<br>
Display aspect ratio : 16:9<br>
Frame rate : 29.970 (30000/1001) FPS<br>
Color space : YUV<br>
Chroma subsampling : 4:2:0<br>
Bit depth : 8 bits<br>
Scan type : Interlaced<br>
Scan order : Top Field First<br>
Compression mode : Lossy<br>
Bits/(Pixel*Frame) : 0.246<br>
Time code of first frame : 00:00:00;00<br>
Time code source : Group of pictures header<br>
GOP, Open/Closed : Open<br>
GOP, Open/Closed of first fram : Closed<br>
Stream size : 8.80 GiB (93%)<br>
<br>
Audio<br>
ID : 520 (0x208)<br>
Menu ID : 1 (0x1)<br>
Format : AC-3<br>
Format/Info : Audio Coding 3<br>
Commercial name : Dolby Digital<br>
Codec ID : 129<br>
Duration : 1 h 22 min<br>
Bit rate mode : Constant<br>
Bit rate : 384 kb/s<br>
Channel(s) : 6 channels<br>
Channel layout : L R C LFE Ls Rs<br>
Sampling rate : 48.0 kHz<br>
Frame rate : 31.250 FPS (1536 SPF)<br>
Compression mode : Lossy<br>
Stream size : 226 MiB (2%)<br>
Language : English<br>
Service kind : Complete Main<br>
<br>
Text #1<br>
ID : 521 (0x209)-CC1<br>
Menu ID : 1 (0x1)<br>
Format : EIA-608<br>
Muxing mode : A/53 / DTVCC Transport<br>
Muxing mode, more info : Muxed in Video #1<br>
Duration : 1 h 22 min<br>
Start time (commands) : 9 s 762 ms<br>
Start time : 9 s 829 ms<br>
End time : 1 h 22 min<br>
End time (commands) : 1 h 22 min<br>
Bit rate mode : Constant<br>
Stream size : 0.00 Byte (0%)<br>
Count of RollUp events : 26<br>
Count of PaintOn events : 1<br>
Count of events : 27<br>
FirstDisplay_Delay_Frames : 402<br>
FirstDisplay_Type : RollUp<br>
<br>
Text #2<br>
ID : 521 (0x209)-1<br>
Menu ID : 1 (0x1)<br>
Format : EIA-708<br>
Muxing mode : A/53 / DTVCC Transport<br>
Muxing mode, more info : Muxed in Video #1<br>
Duration : 1 h 22 min<br>
Bit rate mode : Constant<br>
Stream size : 0.00 Byte (0%)</div>
</div><img src="https://thatgrapejuice.net/wp-content/uploads/HLIC/7b4fcd4c17626c4113b3890263e838f6.jpg" class="bbCodeImage LbImage" alt="[​IMG]" data-url="https://thatgrapejuice.net/wp-content/uploads/HLIC/7b4fcd4c17626c4113b3890263e838f6.jpg" style=""><br>
<i>SETLIST</i><br>
<br>
Medley:<br>
Kelly Clarkson, Mary J. Blige, and Jennifer Hudson – "You Keep Me Hangin' On"<br>
Jennifer Hudson – "Spotlight"<br>
Mary J. Blige" – "Real Love"<br>
Kelly Clarkson – "Since U Been Gone"<br>
Kelly Clarkson, Mary J. Blige, and Jennifer Hudson – "You Keep Me Hangin' On (Reprise)"<br>
Memphis tribute:<br>
Jennifer Hudson and Jessie J – "Knock on Wood"<br>
Erykah Badu, Chaka Khan, and Mavis Staples – "I'll Take You There"<br>
Florence + the Machine with Golden Orb Girls – "Shake It Out"<br>
Detroit medley:<br>
Marsha Ambrosius, Sharon Jones and Martha Reeves – "Nowhere to Run"<br>
Kelly Clarkson and Ledisi – "Chain of Fools"<br>
Marsha Ambrosius and Ledisi – "Sweet Love"<br>
Jessie J – "Domino"<br>
Mary J. Blige – "Mr. Wrong"<br>
Amy Winehouse Tribute:<br>
Sharon Jones &amp; The Dap-Kings and Wanda Jackson- "You Know I'm No Good"<br>
Florence Welch – "Back to Black"<br>
Philadelphia medley:<br>
Estelle and Travie McCoy – "Wake Up Everybody"<br>
Jill Scott, Erykah Badu, and Black Thought – "You Got Me"<br>
Boyz II Men – "Motownphilly"<br>
Jill Scott – "Hear My Call"<br>
Kelly Clarkson – "What Doesn't Kill You (Stronger)"<br>
London medley:<br>
Estelle, Erykah Badu, Marsha Ambrosius, and Questlove – "Back to Life (However Do You Want Me)"<br>
Florence Welch – "Walking On Broken Glass"<br>
Jennifer Hudson – "Night of Your Life"<br>
Chicago medley:<br>
Sharon Jones and Ledisi – "Rescue Me"<br>
Mary J. Blige and Chaka Khan – "Ain't Nobody"<br>
Sharon Jones and The Dap-Kings – "He Said I Can" – Not aired in television broadcast<br>
<div class="bbCodeBlock bbCodeVfcHH HiddenContent">
<div class="attribution type">Hidden Content:</div>
<blockquote>You must reply before you can see the hidden data contained here.</blockquote>
</div></div>
<div class="messageTextEndMarker">&nbsp;</div>
</blockquote>
</article>]]></description>
                <author><![CDATA[Yennefer]]></author>
                </item>

                
                <item>
                <title><![CDATA[【SD Live Performances】SDTV - VH1 Divas Live (1998) 576p DVDRemux MPEG LPCM2.0 AC-3.5.1]]></title>
                <link><![CDATA[https://sharemania.us/threads/vh1-divas-live-1998-576p-dvdremux-mpeg-lpcm2-0-ac-3-5-1.234164/]]></link>
                <description><![CDATA[<article>
<blockquote class="messageText SelectQuoteContainer ugc baseHtml">
<div style="text-align: center"><img src="https://i.imgur.com/sIe6EuI.jpg" class="bbCodeImage LbImage" alt="[​IMG]" data-url="https://i.imgur.com/sIe6EuI.jpg" style=""><br>
<div class="ToggleTriggerAnchor bbCodeSpoilerContainer">
<button type="button" class="button bbCodeSpoilerButton ToggleTrigger Tooltip JsOnly" data-target="> .SpoilerTarget"><span>Spoiler: <span class="SpoilerTitle">MediaInfo</span></span></button>
<div class="SpoilerTarget bbCodeSpoilerText">General<br>
Complete name : C:\VH1 Divas Live (1998) 576p DVDRemux MPEG LPCM2.0 AC-3.5.1.mpg<br>
Format : MPEG-PS<br>
File size : 4.15 GiB<br>
Duration : 1 h 20 min<br>
Overall bit rate mode : Variable<br>
Overall bit rate : 7 398 kb/s<br>
<br>
Video<br>
ID : 224 (0xE0)<br>
Format : MPEG Video<br>
Format version : Version 2<br>
Format profile : Main@Main<br>
Format settings : CustomMatrix / BVOP<br>
Format settings, BVOP : Yes<br>
Format settings, Matrix : Custom<br>
Format settings, GOP : Variable<br>
Format settings, picture struc : Frame<br>
Duration : 1 h 20 min<br>
Bit rate mode : Variable<br>
Bit rate : 5 267 kb/s<br>
Maximum bit rate : 9 800 kb/s<br>
Width : 720 pixels<br>
Height : 576 pixels<br>
Display aspect ratio : 4:3<br>
Frame rate : 25.000 FPS<br>
Standard : PAL<br>
Color space : YUV<br>
Chroma subsampling : 4:2:0<br>
Bit depth : 8 bits<br>
Scan type : Interlaced<br>
Scan order : Top Field First<br>
Compression mode : Lossy<br>
Bits/(Pixel*Frame) : 0.508<br>
Time code of first frame : 00:00:00:00<br>
Time code source : Group of pictures header<br>
GOP, Open/Closed : Open<br>
GOP, Open/Closed of first fram : Closed<br>
Stream size : 2.95 GiB (71%)<br>
<br>
Audio #1<br>
ID : 189 (0xBD)-128 (0x80)<br>
Format : AC-3<br>
Format/Info : Audio Coding 3<br>
Commercial name : Dolby Digital<br>
Muxing mode : DVD-Video<br>
Duration : 1 h 20 min<br>
Bit rate mode : Constant<br>
Bit rate : 448 kb/s<br>
Channel(s) : 6 channels<br>
Channel layout : L R C LFE Ls Rs<br>
Sampling rate : 48.0 kHz<br>
Frame rate : 31.250 FPS (1536 SPF)<br>
Compression mode : Lossy<br>
Stream size : 257 MiB (6%)<br>
Service kind : Complete Main<br>
<br>
Audio #2<br>
ID : 189 (0xBD)-160 (0xA0)<br>
Format : PCM<br>
Format settings : Big / Signed<br>
Muxing mode : DVD-Video<br>
Duration : 1 h 20 min<br>
Bit rate mode : Constant<br>
Bit rate : 1 536 kb/s<br>
Channel(s) : 2 channels<br>
Sampling rate : 48.0 kHz<br>
Bit depth : 16 bits<br>
Stream size : 882 MiB (21%)</div>
</div><img src="https://1.bp.blogspot.com/_YJM766qf5ps/TKU10nlHcoI/AAAAAAAAKoM/a9Q39051o7k/s1600/Vh1-Divas-Live.jpg" class="bbCodeImage LbImage" alt="[​IMG]" data-url="https://1.bp.blogspot.com/_YJM766qf5ps/TKU10nlHcoI/AAAAAAAAKoM/a9Q39051o7k/s1600/Vh1-Divas-Live.jpg" style=""><br>
<i>SETLIST</i><br>
<br>
Mariah Carey – "My All"<br>
Mariah Carey – "Make It Happen"<br>
Gloria Estefan – "Turn The Beat Around"<br>
Gloria Estefan – "Heaven's What I Feel"<br>
Gloria Estefan – Megamix:<br>
"Dr. Beat"<br>
"Conga"<br>
"Rhythm Is Gonna Get You"<br>
"1-2-3"<br>
"Get On Your Feet"<br>
Shania Twain – "Man! I Feel Like a Woman!"<br>
Shania Twain – "You're Still the One"<br>
Aretha Franklin and Mariah Carey – "Chain of Fools"<br>
Celine Dion – "River Deep, Mountain High"<br>
Celine Dion and Carole King – "The Reason"<br>
Celine Dion – "My Heart Will Go On"<br>
Carole King, Celine Dion, Gloria Estefan and Shania Twain – "You've Got a Friend"<br>
The Divas – "A Natural Woman"<br>
The Divas – "Testimony"<br>
<div class="bbCodeBlock bbCodeVfcHH HiddenContent">
<div class="attribution type">Hidden Content:</div>
<blockquote>You must reply before you can see the hidden data contained here.</blockquote>
</div></div>
<div class="messageTextEndMarker">&nbsp;</div>
</blockquote>
</article>]]></description>
                <author><![CDATA[Yennefer]]></author>
                </item>

                
                <item>
                <title><![CDATA[【SD Live Performances】WEB-DL - VH1 Divas Live: The One and Only Aretha Franklin (2001) 576p AMZN WEB-DL DDP2.0 H.264-NickiEX]]></title>
                <link><![CDATA[https://sharemania.us/threads/vh1-divas-live-the-one-and-only-aretha-franklin-2001-576p-amzn-web-dl-ddp2-0-h-264-nickiex.234167/]]></link>
                <description><![CDATA[<article>
<blockquote class="messageText SelectQuoteContainer ugc baseHtml">
<div style="text-align: center"><img src="https://i.imgur.com/d2Dadd6.jpg" class="bbCodeImage LbImage" alt="[​IMG]" data-url="https://i.imgur.com/d2Dadd6.jpg" style=""><br>
<div class="ToggleTriggerAnchor bbCodeSpoilerContainer">
<button type="button" class="button bbCodeSpoilerButton ToggleTrigger Tooltip JsOnly" data-target="> .SpoilerTarget"><span>Spoiler: <span class="SpoilerTitle">MediaInfo</span></span></button>
<div class="SpoilerTarget bbCodeSpoilerText">General<br>
Unique ID : 223514030035343988085712611656295100697 (0xA8273C81032FAA80BC3D5B0250F9B119)<br>
Complete name : C:\VH1 Divas Live The One and Only Aretha Franklin (2001) 576p AMZN WEB-DL DDP2.0 H.264-NickiEX.mkv<br>
Format : Matroska<br>
Format version : Version 4 / Version 2<br>
File size : 1.26 GiB<br>
Duration : 59 min 11 s<br>
Overall bit rate : 3 045 kb/s<br>
Encoded date : UTC 2023-12-09 22:21:48<br>
Writing application : mkvmerge v65.0.0 ('Too Much') 64-bit<br>
Writing library : libebml v1.4.2 + libmatroska v1.6.4<br>
<br>
Video<br>
ID : 1<br>
Format : AVC<br>
Format/Info : Advanced Video Codec<br>
Format profile : Main@L3.1<br>
Format settings : CABAC / 5 Ref Frames<br>
Format settings, CABAC : Yes<br>
Format settings, Reference fra : 5 frames<br>
Codec ID : V_MPEG4/ISO/AVC<br>
Duration : 59 min 11 s<br>
Bit rate : 2 819 kb/s<br>
Width : 720 pixels<br>
Height : 576 pixels<br>
Display aspect ratio : 4:3<br>
Frame rate mode : Constant<br>
Frame rate : 29.970 (30000/1001) FPS<br>
Color space : YUV<br>
Chroma subsampling : 4:2:0<br>
Bit depth : 8 bits<br>
Scan type : Progressive<br>
Bits/(Pixel*Frame) : 0.227<br>
Stream size : 1.17 GiB (93%)<br>
Title : NickiEX<br>
Default : Yes<br>
Forced : No<br>
Color range : Limited<br>
Color primaries : BT.709<br>
Transfer characteristics : BT.709<br>
Matrix coefficients : BT.709<br>
<br>
Audio<br>
ID : 2<br>
Format : E-AC-3<br>
Format/Info : Enhanced AC-3<br>
Commercial name : Dolby Digital Plus<br>
Codec ID : A_EAC3<br>
Duration : 59 min 11 s<br>
Bit rate mode : Constant<br>
Bit rate : 224 kb/s<br>
Channel(s) : 2 channels<br>
Channel layout : L R<br>
Sampling rate : 48.0 kHz<br>
Frame rate : 31.250 FPS (1536 SPF)<br>
Compression mode : Lossy<br>
Stream size : 94.8 MiB (7%)<br>
Language : English<br>
Service kind : Complete Main<br>
Default : Yes<br>
Forced : No<br>
<br>
Text<br>
ID : 3<br>
Format : UTF-8<br>
Codec ID : S_TEXT/UTF8<br>
Codec ID/Info : UTF-8 Plain Text<br>
Duration : 59 min 10 s<br>
Bit rate : 54 b/s<br>
Count of elements : 1038<br>
Stream size : 23.8 KiB (0%)<br>
Title : SDH<br>
Language : English<br>
Default : No<br>
Forced : No</div>
</div><img src="https://m.media-amazon.com/images/I/61uubSkgxZL._SS500_.jpg" class="bbCodeImage LbImage" alt="[​IMG]" data-url="https://m.media-amazon.com/images/I/61uubSkgxZL._SS500_.jpg" style=""><br>
<i>SETLIST</i><br>
<br>
Aretha Franklin – "I Can't Turn You Loose"<br>
Aretha Franklin and Backstreet Boys – "Chain Of Fools"<br>
Aretha Franklin – "Ain't No Way"<br>
Marc Anthony and Celia Cruz – "Quimbara" – Not released on CD or DVD<br>
Jill Scott – "(You Make Me Feel Like A) Natural Woman"<br>
Jill Scott – "A Long Walk"<br>
Aretha Franklin – "Think"<br>
Nelly Furtado – "I'm Like a Bird" – Not released on CD or DVD<br>
Mary J. Blige – "Day Dreaming"<br>
Mary J. Blige and Aretha Franklin – "Do Right Woman, Do Right Man"<br>
Aretha Franklin – "Nessun Dorma"<br>
Aretha Franklin with Herbie Hancock, Clark Terry, Ron Carter, Roy Haynes, James Carter, and Russell Malone – Mumbles – Not released on CD or DVD<br>
Aretha Franklin and Kid Rock – "Rock Steady"<br>
Aretha Franklin with Bishop Paul Morton &amp; Choir – "Precious Memories"<br>
Aretha Franklin – "Respect"<br>
Aretha Franklin, Mary J. Blige, Jill Scott, Celia Cruz, Nelly Furtado, Backstreet Boys, Stevie Wonder, Marc Anthony, Herbie Hancock, Clark Terry, Ron Carter, Roy Haynes, James Carter, Russell Malone, and Aretha Franklin's Band – "Freeway Of Love" – Only released on DVD<br>
Aretha Franklin and Willa Ward – "Weeping May Endure For A Night"/"Surely God Is Able" – Not broadcast or released<br>
<div class="bbCodeBlock bbCodeVfcHH HiddenContent">
<div class="attribution type">Hidden Content:</div>
<blockquote>You must reply before you can see the hidden data contained here.</blockquote>
</div><span style="color: #ff0000"><b>VH1 Divas Live The One and Only Aretha Franklin (2001) 480p AMZN WEB-DL DDP2.0 H.264-NickiEX</b></span><br>
<img src="https://i.imgur.com/xVVtzXG.jpg" class="bbCodeImage LbImage" alt="[​IMG]" data-url="https://i.imgur.com/xVVtzXG.jpg" style=""><br>
<div class="bbCodeBlock bbCodeVfcHH HiddenContent">
<div class="attribution type">Hidden Content:</div>
<blockquote>You must reply before you can see the hidden data contained here.</blockquote>
</div><b><span style="color: #ff0000">VH1 Divas Live The One and Only Aretha Franklin (2001) [Broadcast Version] 480p WEBRip x264 AAC2.0</span></b><br>
<img src="https://i.imgur.com/LAdxrPk.jpg" class="bbCodeImage LbImage" alt="[​IMG]" data-url="https://i.imgur.com/LAdxrPk.jpg" style=""><br>
<div class="bbCodeBlock bbCodeVfcHH HiddenContent">
<div class="attribution type">Hidden Content:</div>
<blockquote>You must reply before you can see the hidden data contained here.</blockquote>
</div></div>
<div class="messageTextEndMarker">&nbsp;</div>
</blockquote>
</article>]]></description>
                <author><![CDATA[Yennefer]]></author>
                </item>

                
                <item>
                <title><![CDATA[【HD Live Performances】HDTV - VH1 Divas 2012 1080i HDTV DD5.1 MPEG2-TrollHD]]></title>
                <link><![CDATA[https://sharemania.us/threads/vh1-divas-2012-1080i-hdtv-dd5-1-mpeg2-trollhd.234171/]]></link>
                <description><![CDATA[<article>
<blockquote class="messageText SelectQuoteContainer ugc baseHtml">
<div style="text-align: center"><img src="https://i.imgur.com/S0F7d6a.jpg" class="bbCodeImage LbImage" alt="[​IMG]" data-url="https://i.imgur.com/S0F7d6a.jpg" style=""><br>
<div class="ToggleTriggerAnchor bbCodeSpoilerContainer">
<button type="button" class="button bbCodeSpoilerButton ToggleTrigger Tooltip JsOnly" data-target="> .SpoilerTarget"><span>Spoiler: <span class="SpoilerTitle">MediaInfo</span></span></button>
<div class="SpoilerTarget bbCodeSpoilerText">General<br>
ID : 1 (0x1)<br>
Complete name : C:\VH1 Divas 2012 1080i HDTV DD5.1 MPEG2-TrollHD.ts<br>
Format : MPEG-TS<br>
File size : 10.1 GiB<br>
Duration : 1 h 27 min<br>
Overall bit rate mode : Variable<br>
Overall bit rate : 16.6 Mb/s<br>
Law rating : TV-14 (DLV)<br>
<br>
Video<br>
ID : 524 (0x20C)<br>
Menu ID : 1 (0x1)<br>
Format : MPEG Video<br>
Format version : Version 2<br>
Format profile : Main@High<br>
Format settings : CustomMatrix / BVOP<br>
Format settings, BVOP : Yes<br>
Format settings, Matrix : Custom<br>
Format settings, GOP : M=3, N=15<br>
Format settings, picture struc : Frame<br>
Codec ID : 2<br>
Duration : 1 h 27 min<br>
Bit rate mode : Variable<br>
Bit rate : 15.4 Mb/s<br>
Maximum bit rate : 18.0 Mb/s<br>
Width : 1 920 pixels<br>
Height : 1 080 pixels<br>
Display aspect ratio : 16:9<br>
Frame rate : 29.970 (30000/1001) FPS<br>
Color space : YUV<br>
Chroma subsampling : 4:2:0<br>
Bit depth : 8 bits<br>
Scan type : Interlaced<br>
Scan order : Top Field First<br>
Compression mode : Lossy<br>
Bits/(Pixel*Frame) : 0.247<br>
Time code of first frame : 00:00:00;00<br>
Time code source : Group of pictures header<br>
GOP, Open/Closed : Open<br>
GOP, Open/Closed of first fram : Closed<br>
Stream size : 9.38 GiB (93%)<br>
<br>
Audio<br>
ID : 523 (0x20B)<br>
Menu ID : 1 (0x1)<br>
Format : AC-3<br>
Format/Info : Audio Coding 3<br>
Commercial name : Dolby Digital<br>
Codec ID : 129<br>
Duration : 1 h 27 min<br>
Bit rate mode : Constant<br>
Bit rate : 384 kb/s<br>
Channel(s) : 6 channels<br>
Channel layout : L R C LFE Ls Rs<br>
Sampling rate : 48.0 kHz<br>
Frame rate : 31.250 FPS (1536 SPF)<br>
Compression mode : Lossy<br>
Stream size : 240 MiB (2%)<br>
Language : English<br>
Service kind : Complete Main<br>
<br>
Text #1<br>
ID : 524 (0x20C)-CC1<br>
Menu ID : 1 (0x1)<br>
Format : EIA-608<br>
Muxing mode : A/53 / DTVCC Transport<br>
Muxing mode, more info : Muxed in Video #1<br>
Duration : 1 h 27 min<br>
Start time (commands) : 43 min 28 s<br>
Start time : 43 min 28 s<br>
End time : 1 h 27 min<br>
End time (commands) : 1 h 27 min<br>
Bit rate mode : Constant<br>
Stream size : 0.00 Byte (0%)<br>
Count of RollUp events : 19<br>
Count of PaintOn events : 1<br>
Count of events : 20<br>
FirstDisplay_Type : RollUp<br>
<br>
Text #2<br>
ID : 524 (0x20C)-1<br>
Menu ID : 1 (0x1)<br>
Format : EIA-708<br>
Muxing mode : A/53 / DTVCC Transport<br>
Muxing mode, more info : Muxed in Video #1<br>
Duration : 1 h 27 min<br>
Bit rate mode : Constant<br>
Stream size : 0.00 Byte (0%)</div>
</div><img src="https://www.adamlambertlive.org/wp-content/uploads/2012/12/poster_VH1_DIVAS.jpeg" class="bbCodeImage LbImage" alt="[​IMG]" data-url="https://www.adamlambertlive.org/wp-content/uploads/2012/12/poster_VH1_DIVAS.jpeg" style=""><br>
<i>SETLIST</i><br>
<br>
Adam Lambert – "Let's Dance"<br>
Kelly Clarkson – "Catch My Breath"<br>
Ciara – "Billie Jean"/ "Got Me Good"<br>
Donna Summer Tribute<br>
Kelly Rowland – "I Feel Love"/"Bad Girls"<br>
Keri Hilson – "She Works Hard for the Money"<br>
Adam Lambert – "Love to Love You Baby"/"Hot Stuff"<br>
Kelly Rowland, Keri Hilson &amp; Adam Lambert – "Last Dance"<br>
Metric – "Heart of Glass"<br>
Demi Lovato – "Give Your Heart a Break"<br>
Paloma Faith – "Picking Up the Pieces"<br>
Miley Cyrus – "Rebel Yell"<br>
Natasha Bedingfield, Iggy Azalea &amp; Bootsy Collins – "Groove Is in the Heart"<br>
Metric – "Breathing Underwater"<br>
Adam Lambert – "Ray of Light"<br>
Whitney Houston Tribute<br>
Jordin Sparks – "I'm Every Woman"<br>
Melanie Fiona – "I Wanna Dance With Somebody (Who Loves Me)"/"It's Not Right but It's Okay"<br>
Ledisi, Jordin Sparks &amp; Melanie Fiona – "How Will I Know"<br>
Pitbull – "Don't Stop the Party"<br>
<div class="bbCodeBlock bbCodeVfcHH HiddenContent">
<div class="attribution type">Hidden Content:</div>
<blockquote>You must reply before you can see the hidden data contained here.</blockquote>
</div></div>
<div class="messageTextEndMarker">&nbsp;</div>
</blockquote>
</article>]]></description>
                <author><![CDATA[Yennefer]]></author>
                </item>

                
                <item>
                <title><![CDATA[【SD Live Performances】SDTV - VH1 Divas Las Vegas (2002) 576p DVDRemux MPEG LPCM2.0 AC-3 5.1]]></title>
                <link><![CDATA[https://sharemania.us/threads/vh1-divas-las-vegas-2002-576p-dvdremux-mpeg-lpcm2-0-ac-3-5-1.234166/]]></link>
                <description><![CDATA[<article>
<blockquote class="messageText SelectQuoteContainer ugc baseHtml">
<div style="text-align: center"><img src="https://i.imgur.com/r0SEh5l.jpg" class="bbCodeImage LbImage" alt="[​IMG]" data-url="https://i.imgur.com/r0SEh5l.jpg" style=""><br>
<div class="ToggleTriggerAnchor bbCodeSpoilerContainer">
<button type="button" class="button bbCodeSpoilerButton ToggleTrigger Tooltip JsOnly" data-target="> .SpoilerTarget"><span>Spoiler: <span class="SpoilerTitle">MediaInfo</span></span></button>
<div class="SpoilerTarget bbCodeSpoilerText">General<br>
Unique ID : 204524473232233796333642040054596782634 (0x99DDFB11805476B2B390617A29644A2A)<br>
Complete name : C:\VH1 Divas Las Vegas (2002) 576p DVDRemux MPEG LPCM2.0 AC-3.5.1.mkv<br>
Format : Matroska<br>
Format version : Version 2<br>
File size : 2.66 GiB<br>
Duration : 40 min 22 s<br>
Overall bit rate mode : Variable<br>
Overall bit rate : 9 442 kb/s<br>
Encoded date : UTC 2023-05-26 03:20:00<br>
Writing application : MakeMKV v1.17.3 win(x64-release)<br>
Writing library : libmakemkv v1.17.3 (1.3.10/1.5.2) win(x64-release)<br>
<br>
Video<br>
ID : 1<br>
ID in the original source medi : 224 (0xE0)<br>
Format : MPEG Video<br>
Format version : Version 2<br>
Format profile : Main@Main<br>
Format settings : CustomMatrix / BVOP<br>
Format settings, BVOP : Yes<br>
Format settings, Matrix : Custom<br>
Format settings, GOP : M=3, N=12<br>
Format settings, picture struc : Frame<br>
Codec ID : V_MPEG2<br>
Codec ID/Info : MPEG 1 or 2 Video<br>
Duration : 40 min 22 s<br>
Bit rate mode : Variable<br>
Bit rate : 7 451 kb/s<br>
Maximum bit rate : 9 800 kb/s<br>
Width : 720 pixels<br>
Height : 576 pixels<br>
Display aspect ratio : 4:3<br>
Frame rate mode : Constant<br>
Frame rate : 25.000 FPS<br>
Standard : PAL<br>
Color space : YUV<br>
Chroma subsampling : 4:2:0<br>
Bit depth : 8 bits<br>
Scan type : Interlaced<br>
Scan order : Top Field First<br>
Compression mode : Lossy<br>
Bits/(Pixel*Frame) : 0.719<br>
Stream size : 2.10 GiB (79%)<br>
Language : English<br>
Default : No<br>
Forced : No<br>
Original source medium : DVD-Video<br>
<br>
Audio #1<br>
ID : 2<br>
ID in the original source medi : 189 (0xBD)160 (0xA0)<br>
Format : PCM<br>
Format settings : Little / Signed<br>
Codec ID : A_PCM/INT/LIT<br>
Duration : 40 min 21 s<br>
Bit rate mode : Constant<br>
Bit rate : 1 536 kb/s<br>
Channel(s) : 2 channels<br>
Sampling rate : 48.0 kHz<br>
Frame rate : 30.000 FPS (1600 SPF)<br>
Bit depth : 16 bits<br>
Stream size : 443 MiB (16%)<br>
Title : Stereo<br>
Language : English<br>
Default : Yes<br>
Forced : No<br>
Original source medium : DVD-Video<br>
<br>
Audio #2<br>
ID : 3<br>
ID in the original source medi : 189 (0xBD)129 (0x81)<br>
Format : AC-3<br>
Format/Info : Audio Coding 3<br>
Commercial name : Dolby Digital<br>
Codec ID : A_AC3<br>
Duration : 40 min 21 s<br>
Bit rate mode : Constant<br>
Bit rate : 448 kb/s<br>
Channel(s) : 6 channels<br>
Channel layout : L R C LFE Ls Rs<br>
Sampling rate : 48.0 kHz<br>
Frame rate : 31.250 FPS (1536 SPF)<br>
Compression mode : Lossy<br>
Stream size : 129 MiB (5%)<br>
Title : Surround 5.1<br>
Language : English<br>
Service kind : Complete Main<br>
Default : No<br>
Forced : No<br>
Original source medium : DVD-Video<br>
<br>
Menu<br>
00:00:00.000 : en:Chapter 01<br>
00:04:24.160 : en:Chapter 02<br>
00:09:14.000 : en:Chapter 03<br>
00:12:42.000 : en:Chapter 04<br>
00:16:52.200 : en:Chapter 05<br>
00:21:05.520 : en:Chapter 06<br>
00:24:52.600 : en:Chapter 07<br>
00:28:32.000 : en:Chapter 08<br>
00:33:04.000 : en:Chapter 09<br>
00:34:11.400 : en:Chapter 10<br>
00:35:22.600 : en:Chapter 11<br>
00:36:15.400 : en:Chapter 12<br>
00:40:20.400 : en:Chapter 13</div>
</div><img src="https://i.discogs.com/b-5AHDGWBzX2HbKXcNrylFOY4px2TPKiHDptEUOuO7A/rs:fit/g:sm/q:40/h:300/w:300/czM6Ly9kaXNjb2dz/LWRhdGFiYXNlLWlt/YWdlcy9SLTIxMjMx/NzAtMTUzMDI3NjQ4/MC0xMTA4LmpwZWc.jpeg" class="bbCodeImage LbImage" alt="[​IMG]" data-url="https://i.discogs.com/b-5AHDGWBzX2HbKXcNrylFOY4px2TPKiHDptEUOuO7A/rs:fit/g:sm/q:40/h:300/w:300/czM6Ly9kaXNjb2dz/LWRhdGFiYXNlLWlt/YWdlcy9SLTIxMjMx/NzAtMTUzMDI3NjQ4/MC0xMTA4LmpwZWc.jpeg" style=""><br>
<i>SETLIST</i><br>
<br>
Céline Dion and Anastacia – "You Shook Me All Night Long"<br>
Cher – "Believe"<br>
Cher – "Song for the Lonely"<br>
Shakira – "Underneath Your Clothes"<br>
Dixie Chicks and Stevie Nicks – "Landslide"<br>
Anastacia – "One Day in Your Life"<br>
Céline Dion – "I'm Alive"<br>
Céline Dion – "A New Day Has Come"<br>
Elvis Tribute Finale Medley:<br>
Anastacia – "Jailhouse Rock"<br>
Shakira – "Always on My Mind"<br>
Cher – "Heartbreak Hotel"<br>
Céline Dion – "Can't Help Falling in Love"<br>
<div class="bbCodeBlock bbCodeVfcHH HiddenContent">
<div class="attribution type">Hidden Content:</div>
<blockquote>You must reply before you can see the hidden data contained here.</blockquote>
</div></div>
<div class="messageTextEndMarker">&nbsp;</div>
</blockquote>
</article>]]></description>
                <author><![CDATA[Yennefer]]></author>
                </item>

                
                <item>
                <title><![CDATA[【SD Live Performances】SDTV - VH1 Divas Duets (2003) 480p DVDRip x264 AAC2.0]]></title>
                <link><![CDATA[https://sharemania.us/threads/vh1-divas-duets-2003-480p-dvdrip-x264-aac2-0.234168/]]></link>
                <description><![CDATA[<article>
<blockquote class="messageText SelectQuoteContainer ugc baseHtml">
<div style="text-align: center"><img src="https://i.imgur.com/geekJbF.jpg" class="bbCodeImage LbImage" alt="[​IMG]" data-url="https://i.imgur.com/geekJbF.jpg" style=""><br>
<div class="ToggleTriggerAnchor bbCodeSpoilerContainer">
<button type="button" class="button bbCodeSpoilerButton ToggleTrigger Tooltip JsOnly" data-target="> .SpoilerTarget"><span>Spoiler: <span class="SpoilerTitle">MediaInfo</span></span></button>
<div class="SpoilerTarget bbCodeSpoilerText">General<br>
Complete name : C:\VH1 Divas Duets (2003) 480p DVDRip x264 AAC2.0.mp4<br>
Format : MPEG-4<br>
Format profile : Base Media<br>
Codec ID : isom (isom/iso2/mp41)<br>
File size : 796 MiB<br>
Duration : 1 h 25 min<br>
Overall bit rate mode : Constant<br>
Overall bit rate : 1 303 kb/s<br>
Writing application : Lavf56.15.102<br>
<br>
Video<br>
ID : 1<br>
Format : MPEG-4 Visual<br>
Format profile : Simple@L1<br>
Format settings, BVOP : No<br>
Format settings, QPel : No<br>
Format settings, GMC : No warppoints<br>
Format settings, Matrix : Default (H.263)<br>
Codec ID : mp4v-20<br>
Duration : 1 h 25 min<br>
Bit rate mode : Constant<br>
Bit rate : 1 200 kb/s<br>
Width : 640 pixels<br>
Height : 480 pixels<br>
Display aspect ratio : 4:3<br>
Frame rate mode : Constant<br>
Frame rate : 29.970 (29970/1000) FPS<br>
Color space : YUV<br>
Chroma subsampling : 4:2:0<br>
Bit depth : 8 bits<br>
Scan type : Progressive<br>
Compression mode : Lossy<br>
Bits/(Pixel*Frame) : 0.130<br>
Stream size : 733 MiB (92%)<br>
Writing library : Lavc56.13.100<br>
<br>
Audio<br>
ID : 2<br>
Format : AAC LC<br>
Format/Info : Advanced Audio Codec Low Complexity<br>
Codec ID : mp4a-40-2<br>
Duration : 1 h 25 min<br>
Bit rate mode : Constant<br>
Bit rate : 96.0 kb/s<br>
Channel(s) : 2 channels<br>
Channel layout : L R<br>
Sampling rate : 44.1 kHz<br>
Frame rate : 43.066 FPS (1024 SPF)<br>
Compression mode : Lossy<br>
Stream size : 58.6 MiB (7%)<br>
Default : Yes<br>
Alternate group : 1</div>
</div><img src="https://i.ebayimg.com/images/g/bSIAAOSw~zdkD~q8/s-l1200.jpg" class="bbCodeImage LbImage" alt="[​IMG]" data-url="https://i.ebayimg.com/images/g/bSIAAOSw~zdkD~q8/s-l1200.jpg" style=""><br>
<i>SETLIST</i><br>
<br>
Queen Latifah – "When You're Good To Latifah"<br>
Beyoncé and Jewel – "Proud Mary"<br>
Céline Dion – "Have You Ever Been In Love"<br>
Chaka Khan – Medley: "I Feel For You"/"I'm Every Woman"<br>
Mary J. Blige – Medley: "Real Love"/"Love No Limit"/"Family Affair"<br>
The Isley Brothers and Ashanti – "Who's That Lady?"<br>
Beyoncé – "Dangerously In Love"<br>
Lisa Marie Presley – "Lights Out"<br>
Lisa Marie Presley and Pat Benatar – "Heartbreaker"<br>
Ashanti – "Rock wit U (Awww Baby)"<br>
Whitney Houston and Bobby Brown – Medley: "Something In Common"/"My Love"<br>
Jewel – "Intuition"<br>
Chaka Khan and Mary J. Blige – "Sweet Thing"<br>
Tarralyn Ramsey – "I Wanna Dance With Somebody (Who Loves Me)"<br>
Whitney Houston – "Try It On My Own"<br>
Stevie Wonder tribute medley:<br>
Shania Twain and Stevie Wonder – "Superstition"<br>
Whitney Houston and Stevie Wonder – "I Was Made To Love Her"<br>
Beyoncé and Stevie Wonder – "Signed, Sealed, Delivered I'm Yours"<br>
Jewel and Stevie Wonder – "You Are The Sunshine Of My Life"<br>
Mary J. Blige and Stevie Wonder – "Superwoman"<br>
Ashanti and Stevie Wonder – "Do I Do"<br>
Chaka Khan and Stevie Wonder – "Tell Me Something Good"<br>
Queen Latifah and Stevie Wonder – "Living For The City"<br>
Stevie Wonder, Whitney Houston, Mary J. Blige, Beyoncé, Chaka Khan, Jewel, Ashanti and Queen Latifah – "Higher Ground"<br>
<div class="bbCodeBlock bbCodeVfcHH HiddenContent">
<div class="attribution type">Hidden Content:</div>
<blockquote>You must reply before you can see the hidden data contained here.</blockquote>
</div><i>If you have a better quality please share!</i>​</div>
<div class="messageTextEndMarker">&nbsp;</div>
</blockquote>
</article>]]></description>
                <author><![CDATA[Yennefer]]></author>
                </item>

                
                <item>
                <title><![CDATA[【SD Live Performances】WEB-RiP - VH1 Divas (2004) 428p WEBRip x264 AAC2.0]]></title>
                <link><![CDATA[https://sharemania.us/threads/vh1-divas-2004-428p-webrip-x264-aac2-0.234169/]]></link>
                <description><![CDATA[<article>
<blockquote class="messageText SelectQuoteContainer ugc baseHtml">
<div style="text-align: center"><img src="https://i.imgur.com/KsCCDlR.jpg" class="bbCodeImage LbImage" alt="[​IMG]" data-url="https://i.imgur.com/KsCCDlR.jpg" style=""><br>
<div class="ToggleTriggerAnchor bbCodeSpoilerContainer">
<button type="button" class="button bbCodeSpoilerButton ToggleTrigger Tooltip JsOnly" data-target="> .SpoilerTarget"><span>Spoiler: <span class="SpoilerTitle">MediaInfo</span></span></button>
<div class="SpoilerTarget bbCodeSpoilerText">General<br>
Complete name : C:\VH1 Divas (2004) 428p WEBRip x264 AAC2.0.mp4<br>
Format : MPEG-4<br>
Format profile : Base Media<br>
Codec ID : isom (isom/iso2/avc1/mp41)<br>
File size : 444 MiB<br>
Duration : 1 h 37 min<br>
Overall bit rate : 638 kb/s<br>
Writing application : Lavf59.29.100<br>
<br>
Video<br>
ID : 1<br>
Format : AVC<br>
Format/Info : Advanced Video Codec<br>
Format profile : High@L3<br>
Format settings : CABAC / 3 Ref Frames<br>
Format settings, CABAC : Yes<br>
Format settings, Reference fra : 3 frames<br>
Codec ID : avc1<br>
Codec ID/Info : Advanced Video Coding<br>
Duration : 1 h 37 min<br>
Bit rate : 500 kb/s<br>
Width : 640 pixels<br>
Height : 428 pixels<br>
Display aspect ratio : 3:2<br>
Frame rate mode : Constant<br>
Frame rate : 29.970 (29970/1000) FPS<br>
Color space : YUV<br>
Chroma subsampling : 4:2:0<br>
Bit depth : 8 bits<br>
Scan type : Progressive<br>
Bits/(Pixel*Frame) : 0.061<br>
Stream size : 347 MiB (78%)<br>
Writing library : x264 core 118<br>
Encoding settings : cabac=1 / ref=3 / deblock=1:0:0 / analyse=0x3:0x113 / me=hex / subme=7 / psy=1 / psy_rd=1.00:0.00 / mixed_ref=1 / me_range=16 / chroma_me=1 / trellis=1 / 8x8dct=1 / cqm=0 / deadzone=21,11 / fast_pskip=1 / chroma_qp_offset=-2 / threads=36 / sliced_threads=0 / nr=0 / decimate=1 / interlaced=0 / bluray_compat=0 / constrained_intra=0 / bframes=12 / b_pyramid=1 / b_adapt=1 / b_bias=0 / direct=1 / weightb=1 / open_gop=0 / weightp=2 / keyint=250 / keyint_min=25 / scenecut=40 / intra_refresh=0 / rc_lookahead=40 / rc=2pass / mbtree=1 / bitrate=500 / ratetol=1.0 / qcomp=0.00 / qpmin=0 / qpmax=69 / qpstep=4 / cplxblur=20.0 / qblur=0.5 / ip_ratio=1.40 / aq=1:1.00<br>
Codec configuration box : avcC<br>
<br>
Audio<br>
ID : 2<br>
Format : AAC LC<br>
Format/Info : Advanced Audio Codec Low Complexity<br>
Codec ID : mp4a-40-2<br>
Duration : 1 h 37 min<br>
Bit rate mode : Constant<br>
Bit rate : 128 kb/s<br>
Channel(s) : 2 channels<br>
Channel layout : L R<br>
Sampling rate : 44.1 kHz<br>
Frame rate : 43.066 FPS (1024 SPF)<br>
Compression mode : Lossy<br>
Stream size : 88.9 MiB (20%)<br>
Default : Yes<br>
Alternate group : 1</div>
</div><img src="https://cdn.shopify.com/s/files/1/1049/0070/files/blog_VH1Divas-2004.jpg?10608804856074422554" class="bbCodeImage LbImage" alt="[​IMG]" data-url="https://cdn.shopify.com/s/files/1/1049/0070/files/blog_VH1Divas-2004.jpg?10608804856074422554" style=""><br>
<i>SETLIST</i><br>
<br>
Patti LaBelle, Jessica Simpson, and Cyndi Lauper – "Lady Marmalade"<br>
Debbie Harry and Eve – "Rapture"<br>
Joss Stone – "Fell In Love With A Boy"<br>
Ashanti – "Medley: I'm Coming Out / Mo' Money Mo' Problems"<br>
Patti LaBelle – "New Day"<br>
Cyndi Lauper and Sheila E. – "Stay"<br>
Cyndi Lauper and Patti LaBelle – "Medley: Time After Time / True Colors"<br>
Jessica Simpson – "Take My Breath Away"<br>
Jessica Simpson – "Angels"<br>
Patti LaBelle – "Love, Need And Want You"<br>
Patti LaBelle – "If Only You Knew"<br>
Patti LaBelle – "You'll Never Walk Alone"<br>
Tom Jones and The Pussycat Dolls – "Medley: Tainted Love / You Can Leave Your Hat On"<br>
Blondie – "Good Boys"<br>
Blondie and Joss Stone – "One Way Or Another"<br>
Gladys Knight – "The Way We Were"<br>
Gladys Knight Medley:<br>
Gladys Knight and Joss Stone – "I Don't Want To Do Wrong"<br>
Gladys Knight and Jessica Simpson – "Midnight Train To Georgia"<br>
Gladys Knight, Jessica Simpson, and Joss Stone – "I've Got To Use My Imagination"<br>
1980s Medley Finale:<br>
Cyndi Lauper – "Girls Just Want To Have Fun"<br>
Sheila E. – "The Glamorous Life"<br>
Blondie – "Call Me"<br>
Ashanti – "Ain't Nobody"<br>
Joss Stone – "(If You Love Someone) Set Them Free"<br>
Jessica Simpson – "Higher Love"<br>
The Pussycat Dolls – "Girls On Film"<br>
Tom Jones – "Kiss"<br>
Patti LaBelle – "New Attitude"<br>
Patti LaBelle, Cyndi Lauper, Debbie Harry, Joss Stone, Jessica Simpson, Sheila E., Ashanti, and The Pussycat Dolls – "New Attitude (Reprise)"<br>
<div class="bbCodeBlock bbCodeVfcHH HiddenContent">
<div class="attribution type">Hidden Content:</div>
<blockquote>You must reply before you can see the hidden data contained here.</blockquote>
</div><i>If you have a better quality please share!</i>​</div>
<div class="messageTextEndMarker">&nbsp;</div>
</blockquote>
</article>]]></description>
                <author><![CDATA[Yennefer]]></author>
                </item>

                </channel></rss>